<?xml version="1.0" standalone="no"?>
<!DOCTYPE svg PUBLIC "-//W3C//DTD SVG 20010904//EN"
 "http://www.w3.org/TR/2001/REC-SVG-20010904/DTD/svg10.dtd">
<svg version="1.0" xmlns="http://www.w3.org/2000/svg"
 width="383.000000pt" height="222.000000pt" viewBox="0 0 383.000000 222.000000"
 preserveAspectRatio="xMidYMid meet">

<g transform="translate(0.000000,222.000000) scale(0.100000,-0.100000)"
fill="#000000" stroke="none">
<path d="M238 1459 l-188 -111 0 -237 0 -237 93 -53 c50 -30 137 -80 191 -113
55 -32 107 -58 117 -58 10 0 42 14 71 31 29 18 112 65 183 106 72 42 136 82
143 91 9 12 12 75 12 237 0 199 -2 224 -17 237 -38 34 -372 218 -394 218 -13
-1 -108 -50 -211 -111z m217 -98 c3 -16 5 -62 3 -103 l-3 -73 102 -3 c119 -3
136 -13 107 -62 -89 -146 -181 -280 -191 -280 -10 0 -13 26 -13 100 l0 100
-91 0 c-87 0 -129 10 -129 30 0 14 193 320 202 320 3 0 9 -13 13 -29z"/>
<path d="M2639 1396 c-61 -21 -108 -56 -137 -99 -49 -72 -57 -104 -57 -217 1
-94 3 -110 27 -155 33 -62 80 -108 138 -134 64 -29 197 -29 257 0 60 29 129
110 148 172 20 68 19 201 -2 263 -24 70 -103 147 -173 168 -64 19 -151 20
-201 2z m144 -146 c68 -54 56 -317 -16 -335 -74 -19 -110 22 -115 131 -6 109
4 162 38 196 34 33 58 35 93 8z"/>
<path d="M970 1283 c20 -65 65 -205 99 -310 l62 -193 102 0 102 0 93 303 c51
166 92 305 92 310 0 4 -35 7 -77 7 l-78 0 -55 -194 c-30 -107 -58 -192 -61
-188 -3 4 -30 91 -59 195 l-54 187 -102 0 -102 0 38 -117z"/>
<path d="M1590 1340 l0 -60 85 0 c47 0 85 -3 85 -7 -1 -5 -40 -31 -88 -58
l-87 -50 -3 -193 -2 -192 100 0 100 0 0 310 0 310 -95 0 -95 0 0 -60z"/>
<path d="M1830 1396 c0 -3 42 -71 94 -152 l93 -147 -98 -159 c-55 -87 -99
-161 -99 -164 0 -2 39 -3 88 -2 l87 3 55 93 c30 50 57 92 60 92 3 0 30 -43 60
-95 l55 -95 114 0 113 0 -14 23 c-8 12 -56 88 -107 169 l-92 147 52 83 c29 46
69 111 91 146 l38 62 -88 0 -87 0 -49 -81 c-26 -44 -50 -78 -54 -75 -3 3 -24
39 -46 78 l-42 73 -112 3 c-62 1 -112 1 -112 -2z"/>
<path d="M3120 1090 l0 -310 70 0 70 0 0 207 c0 113 2 204 5 201 3 -3 29 -95
58 -204 l53 -199 65 -3 65 -3 48 193 c27 106 53 200 57 208 5 8 9 -78 9 -192
l0 -207 86 -3 c47 -2 88 -1 90 1 2 2 4 143 4 313 l0 308 -130 0 c-71 0 -130
-3 -130 -6 0 -8 -70 -284 -77 -304 -4 -13 -30 70 -82 268 l-12 42 -124 0 -125
0 0 -310z"/>
</g>
</svg>
